<?xml version="1.0" standalone="no"?>
<!DOCTYPE svg PUBLIC "-//W3C//DTD SVG 20010904//EN"
 "http://www.w3.org/TR/2001/REC-SVG-20010904/DTD/svg10.dtd">
<svg version="1.0" xmlns="http://www.w3.org/2000/svg"
 width="314.000000pt" height="601.000000pt" viewBox="0 0 314.000000 601.000000"
 preserveAspectRatio="xMidYMid meet">
<metadata>
Created by potrace 1.11, written by Peter Selinger 2001-2013
</metadata>
<g transform="translate(0.000000,601.000000) scale(0.100000,-0.100000)"
fill="#000000" stroke="none">
<path d="M609 5912 c-60 -51 -84 -79 -161 -194 -77 -113 -166 -288 -203 -399
-64 -185 -116 -530 -95 -623 7 -32 10 -767 10 -2372 l0 -2324 41 0 41 0 -6
793 c-3 435 -7 1465 -8 2287 -3 1246 -1 1500 11 1527 12 30 23 36 105 62 180
58 410 87 558 71 183 -20 318 -39 335 -49 70 -37 112 -148 81 -215 -39 -86
-209 -92 -438 -17 l-115 38 40 -34 c95 -82 233 -121 363 -103 153 21 212 56
212 126 0 35 8 42 27 23 5 -5 46 -11 91 -12 72 -2 83 0 105 21 45 43 58 152
21 183 -12 10 -14 5 -14 -32 0 -94 -57 -145 -150 -133 -66 9 -75 17 -93 82
-18 67 -46 96 -106 112 -74 19 -356 50 -464 50 -213 0 -485 -35 -545 -70 -18
-11 -35 -20 -37 -20 -15 0 -13 130 4 280 44 365 162 641 372 863 l67 72 72
-70 c81 -80 119 -147 145 -260 10 -42 24 -79 31 -82 7 -2 47 5 88 16 42 12 89
21 105 21 16 0 96 -16 178 -36 177 -44 240 -43 375 5 111 40 192 87 266 156
l59 55 7 -62 c16 -161 1 -290 -39 -328 l-24 -22 74 -49 c79 -53 101 -81 135
-173 19 -49 22 -73 18 -145 -3 -48 -14 -111 -25 -143 -13 -37 -16 -58 -9 -59
6 -1 139 -1 296 0 316 3 405 -7 483 -54 87 -50 157 -140 157 -200 0 -51 -56
-132 -112 -161 -52 -27 -254 -7 -315 32 -33 21 -203 37 -327 31 -124 -5 -197
-27 -309 -93 -146 -85 -334 -249 -362 -317 -18 -43 -19 -569 -8 -2684 l6
-1283 43 0 42 0 -6 1963 c-3 1080 -2 1975 2 1990 14 57 218 229 366 310 70 38
193 71 306 82 56 6 88 3 160 -15 49 -12 101 -28 115 -35 36 -19 181 -55 219
-55 95 0 204 107 225 223 8 42 -13 83 -80 156 -91 99 -182 139 -344 150 -115
8 -403 -1 -488 -15 -52 -8 -54 0 -19 69 43 83 52 146 33 223 -21 81 -62 149
-130 210 l-51 45 12 83 c21 143 11 286 -22 331 -20 27 -55 13 -140 -55 -79
-64 -228 -143 -298 -160 -66 -15 -102 -12 -180 14 -156 53 -276 65 -403 40
-28 -5 -31 -2 -48 39 -47 116 -165 272 -253 334 l-31 22 -44 -37z"/>
<path d="M745 5215 c-74 -26 -115 -100 -101 -183 8 -50 34 -83 87 -110 108
-57 229 19 229 143 0 113 -109 189 -215 150z m105 -50 c41 -21 60 -53 60 -101
0 -80 -78 -134 -151 -104 -90 38 -93 167 -4 206 39 17 60 17 95 -1z"/>
<path d="M1689 5167 c-37 -24 -79 -97 -79 -137 0 -14 10 -46 23 -70 61 -122
234 -118 289 8 35 79 4 168 -73 207 -43 23 -120 19 -160 -8z m160 -53 c75 -63
31 -194 -66 -194 -66 0 -123 51 -123 110 0 29 26 76 52 94 36 25 101 20 137
-10z"/>
<path d="M1945 4579 c-142 -123 -155 -128 -403 -154 -84 -9 -162 -20 -175 -24
-44 -17 11 -24 146 -18 236 11 351 51 468 164 38 36 69 72 69 80 0 28 -38 11
-105 -48z"/>
</g>
</svg>
